<svg width="86" height="22" viewBox="0 0 86 22" fill="none" xmlns="http://www.w3.org/2000/svg">
<path d="M24.1928 15.4391C24.1452 16.0749 23.8644 16.6688 23.4067 17.1021C22.949 17.5354 22.3482 17.7762 21.7243 17.7762C21.1005 17.7762 20.4996 17.5354 20.0419 17.1021C19.5842 16.6688 19.3035 16.0749 19.2558 15.4391V0.182373H14.7676V15.4243C14.8011 16.3223 15.0076 17.2048 15.3751 18.0212C15.7427 18.8375 16.2641 19.5719 16.9096 20.1821C17.555 20.7923 18.3119 21.2665 19.1368 21.5775C19.9617 21.8885 20.8385 22.0303 21.7171 21.9946C23.489 22.0626 25.2148 21.4087 26.5152 20.1767C27.8157 18.9447 28.5843 17.2353 28.6521 15.4243V0.182373H24.1928V15.4391Z" fill="white"/>
<path d="M56.363 0.00482127C54.6326 0.00115246 52.9582 0.63112 51.6431 1.78058C50.3329 0.638194 48.6672 0.0106547 46.945 0.0106547C45.2228 0.0106547 43.5571 0.638194 42.2469 1.78058C40.9356 0.634434 39.2669 0.00468561 37.5415 0.00482127C35.7696 -0.0631931 34.0437 0.590675 32.7433 1.82271C31.4429 3.05474 30.6743 4.76412 30.6064 6.57512V21.817H35.0512V6.57512C35.0989 5.93934 35.3797 5.3454 35.8373 4.91208C36.295 4.47877 36.8959 4.23804 37.5197 4.23804C38.1436 4.23804 38.7445 4.47877 39.2022 4.91208C39.6598 5.3454 39.9406 5.93934 39.9883 6.57512V21.817H44.462V6.57512C44.5097 5.93934 44.7904 5.3454 45.2481 4.91208C45.7058 4.47877 46.3067 4.23804 46.9305 4.23804C47.5544 4.23804 48.1552 4.47877 48.6129 4.91208C49.0706 5.3454 49.3514 5.93934 49.399 6.57512V21.817H53.8438V6.57512C53.8915 5.93934 54.1722 5.3454 54.6299 4.91208C55.0876 4.47877 55.6885 4.23804 56.3123 4.23804C56.9362 4.23804 57.5371 4.47877 57.9947 4.91208C58.4524 5.3454 58.7332 5.93934 58.7809 6.57512V21.817H63.2691V6.57512C63.2392 5.67974 63.0367 4.7992 62.6732 3.98398C62.3096 3.16876 61.7922 2.43491 61.1506 1.8245C60.509 1.21409 59.7559 0.739143 58.9343 0.426881C58.1127 0.11462 57.2389 -0.0288084 56.363 0.00482127Z" fill="white"/>
<path d="M0.0289562 2.84624H0V21.5805H4.44478V12.9976H11.9734V8.43987H4.44478V4.81437H12.871V0.256592H0.0289562V2.84624Z" fill="white"/>
<path d="M75.4308 0.330577C73.3405 0.330577 71.2971 0.964134 69.559 2.15113C67.8209 3.33813 66.4663 5.02525 65.6663 6.99915C64.8664 8.97306 64.6571 11.1451 65.0649 13.2406C65.4727 15.3361 66.4793 17.2609 67.9574 18.7716C69.4355 20.2824 71.3187 21.3112 73.3689 21.7281C75.4191 22.1449 77.5442 21.9309 79.4754 21.1133C81.4067 20.2957 83.0573 18.9111 84.2187 17.1347C85.38 15.3582 85.9999 13.2696 85.9999 11.1331C86.0018 9.71395 85.7297 8.30835 85.1992 6.99685C84.6688 5.68535 83.8903 4.49371 82.9085 3.49022C81.9267 2.48672 80.7608 1.69109 79.4777 1.1489C78.1945 0.606715 76.8193 0.328629 75.4308 0.330577ZM75.4308 17.363C74.219 17.363 73.0343 16.9956 72.0269 16.3071C71.0195 15.6186 70.2345 14.6401 69.7714 13.4955C69.3083 12.3509 69.1879 11.0915 69.4254 9.87687C69.6628 8.66224 70.2476 7.54692 71.1055 6.6721C71.9634 5.79728 73.056 5.20229 74.245 4.96244C75.4339 4.72258 76.6657 4.84866 77.7845 5.3247C78.9033 5.80074 79.8588 6.60534 80.53 7.63666C81.2012 8.66798 81.5579 9.87966 81.5551 11.1183C81.5551 11.9396 81.3966 12.7529 81.0886 13.5115C80.7807 14.2701 80.3293 14.9592 79.7605 15.5392C79.1916 16.1193 78.5163 16.579 77.7734 16.8919C77.0304 17.2049 76.2344 17.365 75.4308 17.363Z" fill="white"/>
</svg>
